<svg xmlns="http://www.w3.org/2000/svg" xmlns:xlink="http://www.w3.org/1999/xlink" width="512" zoomAndPan="magnify" viewBox="0 0 384 383.999986" height="512" preserveAspectRatio="xMidYMid meet" version="1.0"><defs><clipPath id="7f4e881ae1"><path d="M 69 58.816406 L 131 58.816406 L 131 97 L 69 97 Z M 69 58.816406 " clip-rule="nonzero"/></clipPath><clipPath id="120591dcdf"><path d="M 59.148438 191 L 120 191 L 120 263 L 59.148438 263 Z M 59.148438 191 " clip-rule="nonzero"/></clipPath><clipPath id="334960e711"><path d="M 68 180 L 155 180 L 155 334.816406 L 68 334.816406 Z M 68 180 " clip-rule="nonzero"/></clipPath><clipPath id="cb274a47e4"><path d="M 239 151 L 369.648438 151 L 369.648438 246 L 239 246 Z M 239 151 " clip-rule="nonzero"/></clipPath></defs><rect x="-38.4" width="460.8" fill="#ffffff" y="-38.399999" height="460.799983" fill-opacity="1"/><rect x="-38.4" width="460.8" fill="#ffffff" y="-38.399999" height="460.799983" fill-opacity="1"/><path fill="#000000" d="M 79.839844 256.328125 C 79.652344 234.925781 79.464844 213.523438 79.273438 192.128906 C 79.085938 170.730469 78.898438 149.328125 78.707031 127.933594 C 78.601562 115.835938 78.492188 103.742188 78.386719 91.644531 C 78.367188 88.90625 75.996094 86.277344 73.144531 86.402344 C 70.292969 86.527344 67.871094 88.710938 67.898438 91.644531 C 68.089844 113.046875 68.277344 134.449219 68.464844 155.839844 L 69.03125 220.039062 C 69.136719 232.136719 69.25 244.226562 69.355469 256.328125 C 69.375 259.066406 71.746094 261.695312 74.597656 261.570312 C 77.449219 261.441406 79.867188 259.261719 79.839844 256.328125 Z M 79.839844 256.328125 " fill-opacity="1" fill-rule="nonzero"/><g clip-path="url(#7f4e881ae1)"><path fill="#000000" d="M 77.105469 96.078125 C 90.328125 88.917969 103.546875 81.761719 116.765625 74.605469 C 120.492188 72.585938 124.21875 70.574219 127.945312 68.550781 C 130.355469 67.246094 131.328125 63.707031 129.824219 61.382812 C 128.246094 58.929688 125.234375 58.101562 122.652344 59.5 C 109.433594 66.660156 96.214844 73.816406 82.992188 80.972656 C 79.265625 82.992188 75.542969 85.003906 71.816406 87.023438 C 69.402344 88.332031 68.429688 91.867188 69.933594 94.195312 C 71.515625 96.648438 74.527344 97.472656 77.105469 96.078125 Z M 77.105469 96.078125 " fill-opacity="1" fill-rule="nonzero"/></g><path fill="#000000" d="M 79.253906 170.652344 C 85.46875 166.542969 91.445312 162.070312 97.15625 157.296875 C 99.660156 155.207031 102.085938 153.03125 104.539062 150.894531 C 105.734375 149.851562 106.9375 148.808594 108.167969 147.804688 C 108.777344 147.300781 109.398438 146.804688 110.011719 146.316406 C 110.265625 146.113281 110.796875 145.757812 109.648438 146.585938 C 109.8125 146.46875 109.964844 146.351562 110.117188 146.230469 C 110.46875 145.964844 110.824219 145.699219 111.1875 145.441406 C 114.074219 143.335938 117.136719 141.480469 120.4375 140.082031 C 121.554688 139.605469 122.542969 138.0625 122.847656 136.949219 C 123.191406 135.691406 123.039062 134.019531 122.316406 132.910156 C 121.597656 131.796875 120.519531 130.804688 119.1875 130.5 C 117.71875 130.164062 116.515625 130.441406 115.144531 131.03125 C 108.929688 133.671875 103.5625 137.941406 98.480469 142.308594 C 96.050781 144.394531 93.683594 146.539062 91.25 148.613281 C 89.914062 149.753906 88.566406 150.871094 87.203125 151.976562 C 86.515625 152.527344 85.832031 153.074219 85.148438 153.613281 C 84.972656 153.746094 84.804688 153.882812 84.628906 154.015625 C 84.351562 154.242188 83.894531 154.394531 84.910156 153.800781 C 84.496094 154.039062 84.121094 154.410156 83.734375 154.695312 C 80.554688 157.105469 77.289062 159.40625 73.960938 161.609375 C 71.675781 163.117188 70.488281 166.3125 72.082031 168.777344 C 73.550781 171.058594 76.808594 172.28125 79.253906 170.660156 Z M 79.253906 170.652344 " fill-opacity="1" fill-rule="nonzero"/><g clip-path="url(#120591dcdf)"><path fill="#000000" d="M 69.003906 259.640625 C 70.261719 257.527344 71.589844 255.46875 72.988281 253.445312 C 74.386719 251.425781 75.941406 249.527344 77.332031 247.511719 C 76.402344 248.863281 77.476562 247.332031 77.6875 247.058594 C 78.085938 246.554688 78.484375 246.058594 78.882812 245.554688 C 79.617188 244.640625 80.359375 243.730469 81.113281 242.832031 C 82.679688 240.941406 84.28125 239.078125 85.886719 237.230469 C 92.660156 229.4375 99.546875 221.730469 106.386719 213.992188 C 110.292969 209.5625 114.207031 205.136719 118.117188 200.707031 C 119.933594 198.652344 120.289062 195.289062 118.117188 193.289062 C 116.128906 191.464844 112.640625 191.09375 110.699219 193.289062 C 103.644531 201.277344 96.589844 209.269531 89.53125 217.257812 C 82.945312 224.714844 76.210938 232.066406 70.066406 239.894531 C 66.433594 244.527344 62.964844 249.289062 59.945312 254.347656 C 58.539062 256.703125 59.335938 260.207031 61.824219 261.519531 C 64.3125 262.832031 67.496094 262.15625 68.996094 259.640625 Z M 69.003906 259.640625 " fill-opacity="1" fill-rule="nonzero"/></g><path fill="#000000" d="M 124.4375 192.949219 C 127.175781 192.949219 129.804688 190.535156 129.679688 187.707031 C 129.554688 184.875 127.371094 182.464844 124.4375 182.464844 C 121.695312 182.464844 119.066406 184.875 119.191406 187.707031 C 119.320312 190.535156 121.5 192.949219 124.4375 192.949219 Z M 124.4375 192.949219 " fill-opacity="1" fill-rule="nonzero"/><path fill="#000000" d="M 83.824219 207.785156 C 82.289062 219.695312 86.910156 231.429688 85.363281 243.339844 L 85.550781 241.949219 L 85.511719 242.269531 L 95.808594 243.660156 C 94.96875 236.972656 94.996094 230.214844 95.886719 223.53125 L 95.695312 224.921875 C 96.339844 220.226562 97.242188 215.363281 99.050781 210.953125 L 98.519531 212.203125 C 98.792969 211.554688 99.09375 210.910156 99.4375 210.289062 C 99.597656 210 99.765625 209.714844 99.945312 209.441406 C 100.242188 208.988281 101.070312 208.175781 99.882812 209.449219 C 100.324219 208.980469 100.738281 208.519531 101.21875 208.078125 C 101.8125 207.535156 100.324219 208.652344 100.742188 208.449219 C 100.898438 208.378906 101.042969 208.246094 101.191406 208.15625 C 101.5 207.96875 101.820312 207.808594 102.148438 207.660156 L 100.898438 208.191406 C 101.601562 207.890625 102.332031 207.695312 103.09375 207.582031 L 101.703125 207.773438 C 102.546875 207.667969 103.378906 207.667969 104.230469 207.777344 L 102.839844 207.589844 C 103.5625 207.710938 104.238281 207.90625 104.925781 208.171875 L 103.671875 207.640625 C 104.230469 207.875 104.777344 208.148438 105.300781 208.472656 C 105.527344 208.605469 105.75 208.75 105.964844 208.898438 C 106.882812 209.527344 105.328125 208.351562 105.734375 208.703125 C 106.566406 209.40625 107.238281 210.203125 107.992188 210.980469 C 106.964844 209.925781 107.523438 210.363281 107.796875 210.734375 C 107.945312 210.945312 108.089844 211.15625 108.230469 211.371094 C 108.515625 211.804688 108.78125 212.246094 109.035156 212.699219 C 109.585938 213.683594 110.070312 214.710938 110.515625 215.753906 L 109.984375 214.503906 C 112.640625 220.84375 114.171875 227.648438 115.097656 234.449219 L 114.90625 233.058594 C 115.585938 238.160156 115.898438 243.292969 115.996094 248.4375 C 116.046875 251.175781 118.375 253.804688 121.242188 253.675781 C 124.105469 253.550781 126.539062 251.371094 126.484375 248.4375 C 126.335938 240.542969 125.660156 232.625 124.058594 224.894531 C 123.308594 221.273438 122.324219 217.695312 121.066406 214.222656 C 119.925781 211.070312 118.632812 207.84375 116.613281 205.136719 C 114.101562 201.773438 110.9375 198.972656 106.832031 197.757812 C 103.105469 196.644531 98.582031 197.195312 95.375 199.46875 C 89.671875 203.515625 87.769531 210.574219 86.441406 217.097656 C 84.65625 225.832031 84.203125 234.820312 85.320312 243.667969 C 85.496094 245.046875 85.777344 246.378906 86.859375 247.375 C 87.726562 248.171875 88.699219 248.660156 89.871094 248.8125 C 91.046875 248.96875 92.242188 248.820312 93.214844 248.191406 C 94.277344 247.507812 95.4375 246.367188 95.625 245.058594 C 96.09375 241.710938 96.289062 238.421875 96.101562 235.042969 C 95.925781 231.984375 95.535156 228.9375 95.136719 225.902344 C 94.355469 219.90625 93.542969 213.84375 94.324219 207.800781 C 94.488281 206.570312 93.625 204.925781 92.789062 204.09375 C 91.878906 203.1875 90.382812 202.503906 89.082031 202.558594 C 87.78125 202.613281 86.320312 203.0625 85.378906 204.09375 C 84.371094 205.191406 84.027344 206.339844 83.839844 207.800781 Z M 83.824219 207.785156 " fill-opacity="1" fill-rule="nonzero"/><path fill="#000000" d="M 93.835938 175.566406 C 94.058594 193.527344 95.515625 211.433594 98.050781 229.214844 C 98.757812 234.148438 99.554688 239.070312 100.441406 243.976562 C 100.667969 245.199219 101.8125 246.5 102.855469 247.109375 C 103.980469 247.765625 105.636719 248.042969 106.894531 247.640625 C 108.152344 247.234375 109.390625 246.445312 110.027344 245.226562 C 110.71875 243.921875 110.816406 242.640625 110.558594 241.1875 C 109.480469 235.210938 108.53125 229.207031 107.71875 223.191406 L 107.910156 224.582031 C 106.210938 211.910156 105.097656 199.167969 104.601562 186.390625 C 104.460938 182.785156 104.371094 179.171875 104.328125 175.558594 C 104.296875 172.820312 101.945312 170.191406 99.085938 170.316406 C 96.226562 170.441406 93.808594 172.621094 93.84375 175.558594 Z M 93.835938 175.566406 " fill-opacity="1" fill-rule="nonzero"/><path fill="#000000" d="M 128.363281 202.445312 C 125.429688 201.789062 122.464844 201.238281 119.484375 200.8125 C 116.339844 200.363281 112.914062 199.753906 109.839844 200.945312 C 107.601562 201.808594 105.9375 203.117188 104.5625 205.09375 C 103.652344 206.402344 103.078125 208.050781 102.769531 209.617188 C 102.09375 213.050781 102.234375 216.445312 103.015625 219.847656 C 103.722656 222.910156 105 225.867188 106.425781 228.664062 C 107.851562 231.457031 109.769531 234.429688 112.636719 236.175781 C 114.265625 237.167969 116.304688 237.792969 118.222656 237.75 C 120.625 237.691406 122.625 236.777344 124.457031 235.289062 C 126.625 233.527344 128.007812 230.738281 129.386719 228.347656 C 132.914062 222.234375 135.773438 215.773438 136.273438 208.652344 L 125.785156 208.652344 C 126.066406 218.878906 127.035156 229.070312 128.566406 239.183594 C 128.75 240.390625 129.972656 241.726562 130.980469 242.3125 C 132.105469 242.96875 133.761719 243.25 135.019531 242.84375 C 136.277344 242.4375 137.515625 241.648438 138.152344 240.433594 C 138.851562 239.105469 138.90625 237.867188 138.683594 236.394531 C 138.472656 235.03125 138.277344 233.667969 138.097656 232.304688 L 138.285156 233.695312 C 137.171875 225.386719 136.503906 217.027344 136.277344 208.652344 C 136.203125 205.914062 133.921875 203.285156 131.035156 203.410156 C 128.148438 203.535156 125.996094 205.71875 125.792969 208.652344 C 125.75 209.273438 125.6875 209.890625 125.601562 210.503906 L 125.792969 209.113281 C 125.394531 211.875 124.570312 214.523438 123.492188 217.097656 L 124.023438 215.84375 C 122.917969 218.429688 121.597656 220.90625 120.183594 223.335938 C 119.542969 224.449219 118.898438 225.574219 118.199219 226.648438 C 118.09375 226.8125 117.382812 227.78125 117.996094 227 C 118.613281 226.21875 117.863281 227.140625 117.722656 227.277344 C 117.542969 227.46875 117.339844 227.621094 117.160156 227.804688 C 118.234375 226.753906 117.648438 227.410156 117.136719 227.648438 L 118.390625 227.117188 C 118.054688 227.25 117.726562 227.34375 117.375 227.40625 L 118.765625 227.214844 C 118.320312 227.265625 117.890625 227.265625 117.445312 227.210938 L 118.835938 227.398438 C 118.390625 227.320312 117.96875 227.195312 117.542969 227.027344 L 118.792969 227.558594 C 118.417969 227.390625 118.074219 227.167969 117.710938 226.980469 C 117.199219 226.714844 118.535156 227.71875 118.117188 227.300781 C 117.949219 227.132812 117.757812 226.984375 117.597656 226.8125 C 117.464844 226.679688 117.339844 226.53125 117.214844 226.390625 C 116.613281 225.742188 117.765625 227.1875 117.417969 226.664062 C 117.179688 226.300781 116.925781 225.953125 116.703125 225.582031 C 115.761719 224.023438 114.964844 222.367188 114.242188 220.695312 L 114.773438 221.945312 C 113.851562 219.746094 113.132812 217.472656 112.789062 215.105469 L 112.976562 216.496094 C 112.78125 214.972656 112.753906 213.453125 112.941406 211.929688 L 112.753906 213.320312 C 112.90625 212.257812 113.144531 211.226562 113.566406 210.230469 L 113.035156 211.484375 C 113.152344 211.230469 113.269531 210.980469 113.410156 210.742188 C 113.503906 210.582031 113.605469 210.429688 113.710938 210.28125 C 113.1875 210.929688 113.0625 211.113281 113.335938 210.820312 C 114.207031 210.09375 112.636719 211.203125 113.097656 210.960938 C 113.363281 210.8125 113.613281 210.660156 113.894531 210.539062 L 112.640625 211.070312 C 113.214844 210.847656 113.796875 210.707031 114.410156 210.628906 L 113.019531 210.820312 C 114.398438 210.679688 115.753906 210.820312 117.117188 210.996094 L 115.726562 210.804688 C 119.039062 211.253906 122.339844 211.839844 125.601562 212.574219 C 128.273438 213.175781 131.40625 211.761719 132.054688 208.910156 C 132.664062 206.25 131.257812 203.101562 128.394531 202.460938 Z M 128.363281 202.445312 " fill-opacity="1" fill-rule="nonzero"/><g clip-path="url(#334960e711)"><path fill="#000000" d="M 109.558594 198.839844 C 110.585938 210.351562 114.136719 221.632812 120.464844 231.355469 C 121.484375 232.925781 123.074219 233.945312 124.996094 233.945312 C 126.8125 233.945312 128.628906 232.953125 129.523438 231.355469 C 135.753906 220.15625 141.976562 208.960938 148.207031 197.761719 C 149.980469 194.570312 151.757812 191.382812 153.53125 188.1875 C 154.8125 185.886719 154.257812 183.03125 152.183594 181.421875 C 150.246094 179.925781 147.015625 179.851562 145.296875 181.835938 C 138.257812 189.941406 132.753906 199.167969 128.007812 208.773438 C 123.261719 218.375 119.296875 228.007812 114.851562 237.582031 C 110.40625 247.15625 105.175781 256.675781 99.773438 265.929688 C 94.367188 275.183594 88.726562 284.472656 83.582031 293.957031 C 78.289062 303.722656 73.5 313.800781 69.851562 324.296875 C 69.394531 325.605469 68.960938 326.910156 68.550781 328.226562 C 67.726562 330.839844 69.523438 334.0625 72.214844 334.675781 C 75.074219 335.328125 77.777344 333.816406 78.667969 331.015625 C 80.105469 326.457031 81.785156 321.976562 83.636719 317.566406 L 83.105469 318.816406 C 90.746094 300.765625 101.367188 284.234375 111.105469 267.285156 C 115.964844 258.835938 120.519531 250.246094 124.589844 241.382812 C 128.601562 232.640625 132.320312 223.761719 136.542969 215.117188 C 138.859375 210.386719 141.320312 205.71875 144.074219 201.222656 C 145.429688 199.007812 146.863281 196.832031 148.371094 194.722656 C 148.765625 194.179688 149.164062 193.640625 149.5625 193.101562 C 149.734375 192.871094 149.910156 192.640625 150.078125 192.417969 C 150.40625 191.984375 150.308594 192.109375 149.785156 192.792969 C 149.902344 192.640625 150.023438 192.492188 150.140625 192.339844 C 150.972656 191.292969 151.828125 190.257812 152.707031 189.242188 L 144.472656 182.890625 C 138.242188 194.085938 132.019531 205.285156 125.792969 216.480469 C 124.015625 219.675781 122.242188 222.863281 120.464844 226.054688 L 129.519531 226.054688 C 127.496094 222.953125 125.765625 219.683594 124.308594 216.277344 L 124.839844 217.527344 C 122.546875 212.085938 120.988281 206.351562 120.191406 200.496094 L 120.382812 201.886719 C 120.25 200.867188 120.136719 199.851562 120.046875 198.832031 C 119.917969 197.414062 119.542969 196.164062 118.507812 195.128906 C 117.597656 194.21875 116.101562 193.535156 114.800781 193.589844 C 112.171875 193.710938 109.300781 195.910156 109.558594 198.832031 Z M 109.558594 198.839844 " fill-opacity="1" fill-rule="nonzero"/></g><path fill="#000000" d="M 231.96875 81.9375 C 222.589844 100.597656 213.6875 119.503906 205.285156 138.628906 C 196.742188 158.085938 188.691406 177.753906 181.167969 197.628906 C 176.992188 208.660156 172.980469 219.757812 169.128906 230.90625 C 168.527344 232.640625 169.21875 234.75 170.476562 236.007812 C 171.890625 237.421875 173.695312 237.699219 175.582031 237.359375 C 179.167969 236.707031 182.773438 236.140625 186.390625 235.652344 L 185 235.839844 C 198.664062 234.015625 212.480469 233.386719 226.257812 233.960938 C 229 234.074219 231.628906 231.464844 231.503906 228.71875 C 231.371094 225.785156 229.195312 223.601562 226.257812 223.476562 C 212.589844 222.910156 198.894531 223.519531 185.332031 225.308594 C 181.140625 225.859375 176.957031 226.488281 172.792969 227.246094 C 174.945312 229.398438 177.089844 231.542969 179.246094 233.695312 C 186.074219 213.921875 193.410156 194.332031 201.257812 174.9375 C 203.46875 169.472656 205.71875 164.027344 208.011719 158.59375 L 207.480469 159.847656 C 215.5625 140.703125 224.140625 121.761719 233.199219 103.058594 C 235.765625 97.761719 238.375 92.484375 241.023438 87.226562 C 242.253906 84.78125 241.75 81.433594 239.144531 80.058594 C 236.757812 78.796875 233.285156 79.324219 231.96875 81.9375 Z M 231.96875 81.9375 " fill-opacity="1" fill-rule="nonzero"/><path fill="#000000" d="M 210.570312 208.113281 C 206.308594 205.570312 200.300781 206.066406 196.304688 208.945312 C 194.171875 210.484375 192.4375 212.449219 191.375 214.867188 C 190.3125 217.285156 189.78125 219.855469 189.492188 222.601562 C 189.257812 224.945312 189.285156 227.308594 189.5625 229.648438 C 189.878906 232.296875 190.15625 235.511719 191.714844 237.785156 C 194.136719 241.300781 198.332031 242.304688 202.148438 240.40625 C 204.320312 239.328125 205.910156 237.238281 207.480469 235.457031 C 211.039062 231.4375 214.472656 227.308594 217.773438 223.070312 C 214.851562 222.304688 211.925781 221.527344 209.003906 220.757812 C 211.921875 228.699219 214.84375 236.636719 217.757812 244.578125 C 218.242188 245.882812 218.933594 246.988281 220.167969 247.707031 C 221.296875 248.367188 222.953125 248.644531 224.210938 248.238281 C 226.726562 247.421875 228.886719 244.550781 227.875 241.789062 C 224.957031 233.847656 222.035156 225.910156 219.121094 217.96875 C 218.476562 216.207031 217.339844 214.824219 215.457031 214.308594 C 213.828125 213.859375 211.464844 214.230469 210.355469 215.65625 C 208.019531 218.648438 205.621094 221.597656 203.160156 224.484375 C 201.957031 225.894531 200.734375 227.285156 199.503906 228.671875 C 198.890625 229.363281 198.28125 230.0625 197.636719 230.730469 C 197.519531 230.859375 197.398438 230.976562 197.273438 231.09375 C 197.121094 231.242188 196.476562 231.757812 197.203125 231.191406 C 197.890625 230.660156 197.367188 231.054688 197.199219 231.160156 C 197.007812 231.269531 196.820312 231.355469 196.617188 231.445312 L 197.867188 230.914062 C 197.617188 230.996094 197.394531 231.054688 197.128906 231.09375 L 198.519531 230.90625 C 198.34375 230.925781 198.175781 230.925781 198 230.90625 L 199.394531 231.09375 C 199.128906 231.054688 198.910156 231.003906 198.664062 230.914062 L 199.917969 231.445312 C 199.777344 231.382812 199.644531 231.3125 199.519531 231.222656 C 200.257812 231.84375 200.449219 231.960938 200.085938 231.589844 C 201.140625 232.667969 200.582031 232.242188 200.328125 231.695312 L 200.859375 232.949219 C 200.308594 231.578125 200.097656 230.03125 199.902344 228.570312 L 200.09375 229.964844 C 199.742188 227.203125 199.734375 224.421875 200.09375 221.652344 L 199.902344 223.042969 C 200.097656 221.617188 200.414062 220.226562 200.957031 218.886719 L 200.425781 220.136719 C 200.65625 219.589844 200.917969 219.066406 201.230469 218.570312 C 201.300781 218.453125 201.378906 218.339844 201.453125 218.226562 C 201.769531 217.789062 201.65625 217.921875 201.132812 218.625 C 201.34375 218.464844 201.511719 218.1875 201.699219 217.996094 C 201.886719 217.808594 202.105469 217.640625 202.292969 217.453125 C 201.230469 218.527344 201.589844 217.976562 201.988281 217.71875 C 202.460938 217.410156 202.972656 217.152344 203.496094 216.933594 L 202.246094 217.464844 C 203.027344 217.160156 203.824219 216.949219 204.648438 216.832031 L 203.257812 217.019531 C 204 216.933594 204.734375 216.929688 205.46875 217.019531 L 204.078125 216.832031 C 204.636719 216.914062 205.167969 217.054688 205.691406 217.257812 L 204.441406 216.726562 C 204.734375 216.851562 205.007812 216.992188 205.277344 217.160156 C 207.636719 218.5625 211.136719 217.765625 212.453125 215.277344 C 213.765625 212.789062 213.089844 209.601562 210.570312 208.109375 Z M 210.570312 208.113281 " fill-opacity="1" fill-rule="nonzero"/><path fill="#000000" d="M 195.539062 220.785156 C 195.765625 225.273438 195.988281 229.765625 196.203125 234.253906 L 206.503906 232.863281 C 206.355469 231.96875 206.214844 231.074219 206.089844 230.171875 L 206.277344 231.5625 C 205.566406 226.257812 205.0625 220.695312 205.742188 215.371094 L 205.550781 216.761719 C 205.796875 214.992188 206.195312 213.257812 206.886719 211.609375 L 206.355469 212.859375 C 206.574219 212.363281 206.808594 211.882812 207.082031 211.414062 C 207.238281 211.148438 207.410156 210.902344 207.578125 210.644531 C 208.070312 209.898438 206.636719 211.691406 207.382812 210.902344 C 207.566406 210.714844 207.734375 210.511719 207.921875 210.332031 C 208.074219 210.175781 208.894531 209.519531 208.074219 210.148438 C 207.257812 210.777344 208.109375 210.148438 208.292969 210.03125 C 208.59375 209.839844 208.90625 209.671875 209.234375 209.527344 L 207.984375 210.058594 C 208.277344 209.945312 208.535156 209.867188 208.84375 209.8125 L 207.453125 210 C 207.648438 209.972656 207.84375 209.972656 208.039062 210 L 206.648438 209.8125 C 206.804688 209.832031 206.957031 209.875 207.109375 209.925781 L 205.859375 209.394531 C 206.007812 209.449219 206.144531 209.519531 206.277344 209.597656 C 205.550781 208.988281 205.382812 208.863281 205.78125 209.21875 C 206.195312 209.660156 206.140625 209.9375 205.609375 208.917969 C 205.902344 209.476562 206.308594 210.015625 206.628906 210.5625 C 207.339844 211.769531 208.019531 212.992188 208.675781 214.230469 C 210.019531 216.753906 211.242188 219.339844 212.359375 221.972656 L 211.828125 220.722656 C 215.15625 228.605469 217.472656 236.890625 218.707031 245.359375 C 221.902344 244.011719 225.097656 242.667969 228.292969 241.320312 C 227.9375 240.539062 227.59375 239.75 227.257812 238.953125 L 227.789062 240.203125 C 224.65625 232.730469 222.527344 224.875 221.433594 216.851562 L 221.625 218.242188 C 221.246094 215.382812 220.898438 212.484375 221.261719 209.601562 L 221.070312 210.996094 C 221.234375 209.898438 221.492188 208.847656 221.910156 207.820312 L 221.378906 209.070312 C 221.582031 208.609375 221.832031 208.191406 222.078125 207.75 C 222.351562 207.253906 221.210938 208.835938 221.820312 208.128906 C 222.378906 207.472656 220.757812 208.800781 221.5625 208.378906 L 220.308594 208.910156 C 220.546875 208.8125 220.757812 208.75 221.007812 208.707031 L 219.617188 208.898438 C 219.855469 208.875 220.066406 208.875 220.300781 208.898438 L 218.910156 208.707031 C 219.140625 208.757812 219.34375 208.8125 219.570312 208.898438 L 218.316406 208.367188 C 218.519531 208.464844 218.738281 208.644531 218.945312 208.707031 C 218.226562 208.128906 218.066406 208.007812 218.472656 208.359375 L 218.660156 208.539062 C 218.839844 208.722656 218.996094 208.96875 219.191406 209.136719 C 218.652344 208.421875 218.539062 208.289062 218.855469 208.722656 L 219.003906 208.945312 C 219.679688 209.980469 220.21875 211.121094 220.777344 212.21875 C 221.9375 214.511719 223.023438 216.84375 224.023438 219.207031 L 223.492188 217.957031 C 227.371094 227.167969 230.011719 236.867188 231.355469 246.78125 L 231.167969 245.386719 C 231.375 246.953125 231.550781 248.527344 231.699219 250.097656 C 231.832031 251.519531 232.195312 252.769531 233.234375 253.804688 C 234.144531 254.710938 235.640625 255.398438 236.941406 255.339844 C 239.570312 255.222656 242.457031 253.019531 242.183594 250.097656 C 240.910156 236.28125 237.332031 222.910156 231.480469 210.332031 C 230.046875 207.253906 228.636719 203.96875 226.34375 201.425781 C 224.777344 199.679688 222.457031 198.414062 220.078125 198.390625 C 217.144531 198.363281 214.828125 199.964844 213.179688 202.257812 C 212.128906 203.710938 211.464844 205.578125 211.117188 207.324219 C 210.730469 209.273438 210.570312 211.265625 210.65625 213.25 C 210.816406 216.886719 211.390625 220.542969 212.054688 224.121094 C 213.492188 231.90625 215.996094 239.40625 219.253906 246.613281 C 219.742188 247.6875 221.261719 248.765625 222.386719 249.023438 C 223.511719 249.28125 224.6875 249.226562 225.796875 248.757812 C 226.804688 248.332031 227.78125 247.605469 228.308594 246.613281 C 229.011719 245.285156 229.046875 244.046875 228.839844 242.570312 C 227.195312 231.292969 223.59375 220.332031 218.394531 210.183594 C 217.121094 207.695312 215.820312 205.109375 214.109375 202.886719 C 212.597656 200.929688 210.578125 199.65625 208.054688 199.503906 C 206.160156 199.386719 204.160156 200.140625 202.628906 201.222656 C 200.363281 202.824219 198.492188 204.898438 197.359375 207.449219 C 196.140625 210.199219 195.539062 212.867188 195.207031 215.84375 C 194.871094 218.820312 194.96875 221.582031 195.128906 224.433594 C 195.332031 228.1875 195.785156 231.925781 196.402344 235.632812 C 196.597656 236.796875 197.792969 238.222656 198.8125 238.761719 C 199.832031 239.300781 200.964844 239.546875 202.152344 239.382812 C 204.609375 239.054688 206.832031 236.855469 206.699219 234.234375 C 206.472656 229.746094 206.25 225.253906 206.035156 220.765625 C 205.902344 218.03125 203.71875 215.390625 200.789062 215.523438 C 198.066406 215.640625 195.402344 217.828125 195.546875 220.765625 Z M 195.539062 220.785156 " fill-opacity="1" fill-rule="nonzero"/><path fill="#000000" d="M 212.15625 204.585938 C 211.292969 218.304688 211.445312 232.082031 212.640625 245.773438 C 212.976562 249.652344 213.402344 253.523438 213.90625 257.382812 C 214.09375 258.828125 214.367188 260.015625 215.445312 261.085938 C 216.351562 261.996094 217.847656 262.679688 219.148438 262.625 C 220.449219 262.566406 221.910156 262.121094 222.855469 261.085938 C 223.722656 260.136719 224.566406 258.71875 224.390625 257.382812 C 222.625 243.753906 221.867188 229.996094 222.15625 216.257812 C 222.238281 212.363281 222.40625 208.472656 222.652344 204.585938 C 222.828125 201.84375 220.113281 199.222656 217.410156 199.34375 C 214.417969 199.476562 212.355469 201.648438 212.164062 204.585938 Z M 212.15625 204.585938 " fill-opacity="1" fill-rule="nonzero"/><path fill="#000000" d="M 223.359375 217.792969 C 223.359375 213.777344 223.359375 209.757812 223.359375 205.746094 L 223.359375 199.886719 C 223.359375 197.917969 223.21875 195.890625 223.398438 193.925781 L 223.210938 195.316406 C 223.253906 195.03125 223.308594 194.777344 223.394531 194.5 L 222.859375 195.75 C 223.097656 195.207031 223.46875 195.058594 222.644531 195.902344 C 221.820312 196.75 221.988281 196.378906 222.492188 196.105469 C 223.015625 195.820312 223.566406 195.589844 224.113281 195.351562 L 222.859375 195.882812 C 223.820312 195.484375 224.785156 195.164062 225.8125 195.007812 L 224.421875 195.199219 C 225.027344 195.128906 225.609375 195.121094 226.210938 195.199219 L 224.820312 195.007812 C 225.265625 195.09375 225.6875 195.210938 226.105469 195.386719 L 224.855469 194.855469 C 225.1875 195.015625 225.496094 195.207031 225.8125 195.402344 C 226.316406 195.714844 224.859375 194.519531 225.421875 195.128906 C 225.558594 195.28125 225.714844 195.421875 225.851562 195.574219 C 225.984375 195.722656 226.382812 196.234375 225.839844 195.535156 C 225.292969 194.835938 225.75 195.441406 225.859375 195.632812 C 226.085938 195.996094 226.273438 196.371094 226.449219 196.765625 L 225.917969 195.511719 C 226.351562 196.554688 226.601562 197.636719 226.753906 198.757812 L 226.566406 197.363281 C 226.789062 199.230469 226.769531 201.117188 226.785156 203 C 226.796875 204.878906 226.964844 206.722656 226.753906 208.535156 L 226.945312 207.144531 C 226.894531 207.421875 226.832031 207.667969 226.75 207.941406 L 227.28125 206.6875 C 227.054688 207.191406 226.652344 207.457031 227.515625 206.542969 C 227.222656 206.816406 227.257812 206.800781 227.636719 206.492188 C 228.027344 206.207031 228.054688 206.179688 227.71875 206.410156 C 227.203125 206.683594 226.707031 206.960938 226.167969 207.199219 L 227.417969 206.667969 C 226.105469 207.214844 224.742188 207.582031 223.328125 207.777344 L 224.722656 207.589844 C 223.714844 207.710938 222.707031 207.738281 221.695312 207.675781 C 218.953125 207.5 216.332031 210.210938 216.449219 212.917969 C 216.582031 215.90625 218.757812 217.96875 221.695312 218.15625 C 224.335938 218.324219 227.152344 217.949219 229.636719 217.003906 C 232.992188 215.726562 236.320312 213.777344 237.054688 209.933594 C 237.570312 207.234375 237.277344 204.347656 237.253906 201.613281 C 237.234375 198.882812 237.1875 195.847656 236.214844 193.207031 C 235.152344 190.328125 233.445312 187.789062 230.789062 186.152344 C 228.132812 184.519531 224.574219 184.308594 221.53125 185.246094 C 218.128906 186.285156 214.410156 188.0625 213.285156 191.730469 C 212.851562 193.152344 212.863281 194.644531 212.863281 196.113281 L 212.863281 200.246094 C 212.863281 206.101562 212.863281 211.953125 212.871094 217.808594 C 212.871094 220.546875 215.28125 223.175781 218.113281 223.050781 C 220.945312 222.925781 223.359375 220.746094 223.359375 217.808594 Z M 223.359375 217.792969 " fill-opacity="1" fill-rule="nonzero"/><path fill="#000000" d="M 218.546875 156.5625 C 218.574219 177.761719 218.597656 198.957031 218.625 220.15625 C 218.625 225.859375 218.707031 231.578125 217.980469 237.246094 L 218.171875 235.855469 C 217.90625 237.832031 217.542969 239.789062 217.039062 241.71875 L 227.148438 241.71875 C 226.644531 239.257812 226.222656 236.785156 225.894531 234.296875 L 226.085938 235.6875 C 225.617188 232.121094 225.316406 228.53125 225.203125 224.9375 C 225.105469 221.828125 225.089844 218.703125 225.488281 215.613281 L 225.300781 217.003906 C 225.566406 215.089844 226.015625 213.210938 226.75 211.421875 L 226.21875 212.671875 C 226.523438 211.953125 226.867188 211.253906 227.265625 210.582031 C 227.453125 210.261719 227.65625 209.953125 227.875 209.644531 C 227.980469 209.492188 228.40625 208.9375 227.886719 209.609375 C 227.320312 210.351562 227.929688 209.582031 228.019531 209.476562 C 228.265625 209.199219 228.523438 208.925781 228.796875 208.671875 C 228.929688 208.546875 229.078125 208.429688 229.210938 208.304688 C 229.78125 207.777344 228.796875 208.589844 228.796875 208.605469 C 228.796875 208.4375 229.691406 208.015625 229.839844 207.933594 C 230.195312 207.730469 230.566406 207.554688 230.941406 207.394531 L 229.691406 207.925781 C 230.453125 207.617188 231.230469 207.410156 232.046875 207.296875 L 230.65625 207.484375 C 231.425781 207.402344 232.1875 207.410156 232.957031 207.511719 L 231.566406 207.324219 C 232.300781 207.4375 233 207.632812 233.691406 207.917969 L 232.4375 207.386719 C 232.765625 207.535156 233.082031 207.6875 233.390625 207.871094 C 233.542969 207.960938 233.691406 208.058594 233.835938 208.15625 C 234.570312 208.609375 233.417969 207.910156 233.375 207.777344 C 233.433594 207.96875 234.019531 208.332031 234.171875 208.492188 C 234.429688 208.75 234.660156 209.023438 234.90625 209.289062 C 235.375 209.804688 234.472656 208.777344 234.496094 208.742188 C 234.496094 208.75 234.863281 209.261719 234.886719 209.289062 C 235.074219 209.566406 235.257812 209.855469 235.425781 210.148438 C 235.835938 210.847656 236.1875 211.566406 236.507812 212.308594 L 235.976562 211.058594 C 237.117188 213.769531 237.71875 216.648438 238.117188 219.554688 L 237.925781 218.164062 C 238.324219 221.207031 238.429688 224.273438 238.050781 227.320312 L 238.242188 225.929688 C 237.953125 227.992188 237.457031 229.996094 236.65625 231.921875 L 237.1875 230.667969 C 236.773438 231.632812 236.296875 232.570312 235.738281 233.464844 C 235.460938 233.910156 235.152344 234.324219 234.859375 234.757812 C 235.835938 233.289062 234.871094 234.714844 234.523438 235.101562 C 234.171875 235.484375 233.808594 235.847656 233.433594 236.191406 C 233.242188 236.367188 233.039062 236.527344 232.851562 236.695312 C 232.171875 237.28125 233.898438 235.96875 233.101562 236.5 C 232.242188 237.070312 231.382812 237.582031 230.433594 237.992188 L 231.683594 237.460938 C 230.710938 237.859375 229.710938 238.132812 228.671875 238.289062 L 230.0625 238.097656 C 228.9375 238.246094 227.816406 238.253906 226.691406 238.121094 L 228.082031 238.308594 C 226.972656 238.15625 225.894531 237.867188 224.859375 237.433594 L 226.113281 237.964844 C 225.75 237.804688 225.390625 237.628906 225.050781 237.433594 C 224.839844 237.316406 224.636719 237.195312 224.441406 237.0625 C 224.253906 236.9375 223.644531 236.476562 224.390625 237.0625 C 225.195312 237.691406 224.121094 236.804688 223.929688 236.617188 C 223.609375 236.296875 222.636719 235.023438 223.726562 236.492188 C 222.882812 235.359375 222.015625 234.472656 220.597656 234.078125 C 219.339844 233.738281 217.667969 233.890625 216.554688 234.609375 C 215.445312 235.332031 214.453125 236.40625 214.144531 237.742188 C 213.835938 239.078125 213.851562 240.675781 214.675781 241.78125 C 216.136719 243.738281 217.777344 245.429688 219.960938 246.605469 C 222.140625 247.777344 224.511719 248.394531 227.050781 248.652344 C 231.453125 249.09375 235.878906 247.507812 239.324219 244.84375 C 247.023438 238.894531 249.546875 228.816406 248.566406 219.480469 C 248.089844 214.984375 247.230469 210.730469 245.363281 206.605469 C 243.828125 203.207031 241.171875 199.917969 237.710938 198.351562 C 232.992188 196.210938 227.488281 196.609375 223.273438 199.742188 C 219.058594 202.871094 216.640625 207.171875 215.554688 212.054688 C 214.457031 216.996094 214.519531 222.15625 214.785156 227.179688 C 215.09375 233.003906 215.855469 238.820312 217.015625 244.523438 C 217.457031 246.675781 219.898438 248.472656 222.070312 248.371094 C 224.355469 248.269531 226.53125 246.820312 227.125 244.523438 C 228.59375 238.851562 228.992188 232.949219 229.070312 227.113281 C 229.144531 221.421875 229.078125 215.726562 229.070312 210.035156 C 229.054688 198.625 229.042969 187.210938 229.027344 175.796875 C 229.019531 169.386719 229.011719 162.984375 229.007812 156.574219 C 229.007812 153.835938 226.59375 151.207031 223.761719 151.332031 C 220.933594 151.460938 218.519531 153.640625 218.519531 156.574219 Z M 218.546875 156.5625 " fill-opacity="1" fill-rule="nonzero"/><path fill="#000000" d="M 223.824219 225.929688 C 228.515625 226.449219 233.136719 226.777344 237.808594 225.824219 C 241.757812 225.023438 245.742188 222.9375 248.460938 219.933594 C 251.914062 216.101562 254.1875 210.238281 251.539062 205.339844 C 249.566406 201.699219 245.414062 200.007812 241.542969 199.285156 C 237.011719 198.449219 231.699219 198.589844 227.789062 201.355469 C 224.75 203.507812 222.742188 206.570312 221.996094 210.230469 C 221.199219 214.160156 221.128906 218.296875 221.199219 222.289062 C 221.265625 226.28125 221.34375 230.460938 222.59375 234.242188 C 224.148438 238.945312 227.636719 243.25 232.765625 244.089844 C 235.152344 244.480469 237.640625 244.457031 239.917969 243.558594 C 242.617188 242.496094 244.644531 240.921875 246.335938 238.554688 C 247.085938 237.503906 247.195312 235.707031 246.867188 234.511719 C 246.539062 233.316406 245.597656 231.976562 244.457031 231.382812 C 241.75 229.949219 238.988281 230.871094 237.285156 233.261719 C 236.863281 233.84375 237.6875 232.730469 237.6875 232.738281 C 237.6875 232.738281 237.410156 233.046875 237.386719 233.074219 C 237.199219 233.269531 236.285156 234.023438 237.082031 233.402344 C 237.878906 232.78125 237.003906 233.414062 236.78125 233.542969 C 236.488281 233.710938 236.1875 233.847656 235.878906 233.980469 L 237.128906 233.449219 C 236.429688 233.722656 235.726562 233.910156 234.976562 234.011719 L 236.367188 233.820312 C 235.695312 233.890625 235.039062 233.898438 234.367188 233.820312 L 235.757812 234.011719 C 235.019531 233.910156 234.320312 233.722656 233.628906 233.4375 L 234.878906 233.96875 C 234.464844 233.777344 234.097656 233.554688 233.71875 233.324219 C 232.964844 232.855469 234.683594 234.207031 234.054688 233.570312 C 233.851562 233.359375 233.632812 233.171875 233.4375 232.949219 C 232.71875 232.136719 233.933594 233.6875 233.640625 233.234375 C 233.507812 233.023438 233.363281 232.820312 233.234375 232.613281 C 232.957031 232.144531 232.726562 231.660156 232.507812 231.160156 L 233.039062 232.410156 C 232.460938 230.960938 232.125 229.445312 231.902344 227.902344 L 232.089844 229.292969 C 231.734375 226.582031 231.664062 223.828125 231.648438 221.09375 C 231.636719 218.359375 231.703125 215.636719 232.054688 212.9375 L 231.867188 214.328125 C 232.035156 213.078125 232.304688 211.847656 232.789062 210.671875 L 232.257812 211.921875 C 232.453125 211.46875 232.675781 211.023438 232.949219 210.609375 C 233.054688 210.449219 233.164062 210.300781 233.269531 210.148438 C 232.292969 211.625 232.71875 210.847656 233.066406 210.484375 C 233.207031 210.34375 233.566406 210.121094 233.640625 209.953125 C 233.550781 210.15625 232.425781 210.828125 233.234375 210.289062 C 233.726562 209.960938 234.25 209.695312 234.792969 209.464844 L 233.542969 209.996094 C 234.542969 209.597656 235.570312 209.351562 236.632812 209.199219 L 235.242188 209.386719 C 236.554688 209.234375 237.851562 209.261719 239.164062 209.421875 L 237.773438 209.234375 C 239.339844 209.457031 240.910156 209.804688 242.378906 210.398438 L 241.128906 209.867188 C 241.4375 210 241.742188 210.140625 242.039062 210.300781 C 242.269531 210.429688 243.34375 211.183594 242.519531 210.554688 C 241.484375 209.765625 242.804688 210.875 242.765625 210.882812 C 242.652344 210.894531 242.03125 209.742188 242.316406 210.34375 C 242.40625 210.539062 242.519531 210.722656 242.609375 210.925781 L 242.078125 209.671875 C 242.210938 210.03125 242.304688 210.386719 242.359375 210.769531 L 242.171875 209.378906 C 242.210938 209.898438 242.199219 210.394531 242.136719 210.902344 L 242.324219 209.511719 C 242.191406 210.316406 241.960938 211.085938 241.640625 211.839844 L 242.171875 210.589844 C 241.839844 211.316406 241.4375 211.964844 241.003906 212.621094 C 240.695312 213.082031 241.910156 211.546875 241.289062 212.246094 C 241.175781 212.371094 241.074219 212.496094 240.960938 212.617188 C 240.679688 212.921875 240.378906 213.210938 240.074219 213.488281 C 239.945312 213.601562 239.820312 213.707031 239.695312 213.816406 C 238.984375 214.441406 240.535156 213.222656 240.066406 213.539062 C 239.75 213.746094 239.449219 213.972656 239.121094 214.167969 C 238.402344 214.609375 237.652344 214.984375 236.878906 215.3125 L 238.128906 214.78125 C 236.710938 215.355469 235.234375 215.71875 233.71875 215.941406 L 235.109375 215.753906 C 231.347656 216.25 227.574219 215.859375 223.824219 215.445312 C 222.574219 215.304688 220.964844 216.132812 220.121094 216.984375 C 219.210938 217.894531 218.527344 219.386719 218.582031 220.6875 C 218.640625 221.988281 219.085938 223.449219 220.121094 224.394531 C 221.203125 225.390625 222.371094 225.769531 223.824219 225.929688 Z M 223.824219 225.929688 " fill-opacity="1" fill-rule="nonzero"/><path fill="#000000" d="M 238.085938 156.5625 L 238.085938 241.621094 C 238.085938 244.359375 240.5 246.988281 243.332031 246.863281 C 246.160156 246.738281 248.574219 244.558594 248.574219 241.621094 L 248.574219 156.5625 C 248.574219 153.820312 246.160156 151.195312 243.332031 151.320312 C 240.5 151.445312 238.085938 153.625 238.085938 156.5625 Z M 238.085938 156.5625 " fill-opacity="1" fill-rule="nonzero"/><g clip-path="url(#cb274a47e4)"><path fill="#000000" d="M 240.457031 202.515625 C 239.128906 211.964844 239.234375 221.351562 240.941406 230.753906 C 241.707031 234.996094 242.792969 239.425781 246.742188 241.851562 C 249.1875 243.355469 252.460938 243.660156 255.160156 242.71875 C 257.859375 241.773438 259.960938 239.972656 261.625 237.652344 C 263.941406 234.421875 264.703125 230.25 265.519531 226.441406 C 266.4375 222.183594 267.210938 217.898438 267.839844 213.601562 C 269.164062 204.625 269.964844 195.597656 270.121094 186.523438 C 270.289062 176.699219 269.714844 166.871094 268.433594 157.128906 C 265.003906 157.589844 261.570312 158.058594 258.136719 158.519531 C 260.492188 172.722656 262.632812 186.957031 264.546875 201.230469 L 264.359375 199.839844 C 265.148438 205.71875 265.90625 211.601562 266.617188 217.496094 C 266.972656 220.410156 267.316406 223.332031 267.652344 226.246094 C 267.820312 227.734375 267.996094 229.222656 268.15625 230.710938 C 268.300781 232.019531 268.539062 233.351562 268.414062 234.675781 L 268.601562 233.28125 C 268.546875 233.652344 268.464844 233.988281 268.332031 234.339844 L 268.863281 233.085938 C 268.8125 233.214844 268.75 233.332031 268.679688 233.445312 C 268.46875 233.792969 268.625 233.605469 269.140625 232.882812 C 269.058594 232.976562 268.972656 233.066406 268.882812 233.144531 C 268.582031 233.414062 268.777344 233.269531 269.464844 232.710938 C 269.015625 232.882812 268.582031 233.21875 268.132812 233.421875 L 269.386719 232.890625 C 266.804688 233.976562 263.546875 234.988281 262.835938 238.148438 C 262.285156 240.613281 263.253906 243.097656 265.472656 244.382812 C 266.625 245.046875 267.730469 245.199219 269.035156 245.3125 C 270.34375 245.421875 271.820312 245.269531 273.152344 245.011719 C 274.105469 244.828125 274.964844 244.394531 275.71875 243.808594 C 278.179688 241.90625 278.675781 237.988281 276.292969 235.75 C 275.335938 234.847656 274.175781 234.28125 272.894531 233.988281 C 271.769531 233.730469 270.652344 233.632812 269.574219 233.183594 L 270.828125 233.714844 C 270.492188 233.570312 270.160156 233.402344 269.847656 233.214844 C 269.695312 233.121094 269.546875 233.015625 269.394531 232.917969 C 268.714844 232.484375 270.476562 233.835938 269.875 233.296875 C 269.601562 233.050781 269.332031 232.816406 269.078125 232.550781 C 268.707031 232.15625 267.953125 231.03125 269.050781 232.613281 C 268.121094 231.277344 267.359375 229.886719 266.714844 228.382812 L 267.246094 229.632812 C 265.308594 225.023438 264.179688 220.121094 261.984375 215.605469 L 260.101562 222.777344 C 261.109375 222.324219 262.21875 221.847656 262.996094 221.023438 C 264.917969 218.988281 265.269531 215.539062 263.066406 213.511719 C 261.746094 212.292969 260.1875 211.824219 258.460938 212.054688 C 256.605469 212.308594 254.839844 212.949219 253.078125 213.539062 C 250.796875 214.300781 248.53125 215.105469 246.28125 215.949219 C 243.574219 216.96875 240.246094 217.828125 239.367188 221.015625 C 238.4375 224.386719 241.09375 227.644531 244.492188 227.683594 C 245.132812 227.691406 245.804688 227.542969 246.441406 227.410156 C 248.460938 226.984375 250.449219 226.347656 252.441406 225.804688 C 258.738281 224.078125 265.03125 222.332031 271.328125 220.589844 C 282.550781 217.488281 293.785156 214.417969 305.117188 211.757812 C 316.332031 209.121094 327.648438 206.914062 339.050781 205.25 C 340.597656 205.023438 342.140625 204.808594 343.691406 204.597656 L 342.300781 204.789062 C 349.613281 203.808594 356.949219 203.035156 364.300781 202.402344 C 365.714844 202.285156 366.980469 201.902344 368.007812 200.867188 C 368.914062 199.957031 369.601562 198.460938 369.546875 197.164062 C 369.425781 194.519531 367.230469 191.667969 364.300781 191.921875 C 346.964844 193.402344 329.703125 195.765625 312.675781 199.34375 C 297.238281 202.585938 282.027344 206.75 266.835938 210.953125 C 261.949219 212.300781 257.066406 213.65625 252.179688 215.007812 C 249.761719 215.671875 247.351562 216.339844 244.933594 216.992188 C 244.378906 217.136719 243.828125 217.296875 243.261719 217.382812 L 244.652344 217.195312 C 244.589844 217.199219 244.527344 217.207031 244.46875 217.199219 L 245.863281 217.390625 C 245.863281 217.390625 245.847656 217.390625 245.839844 217.390625 L 247.09375 217.921875 L 248.957031 219.785156 L 249.488281 221.039062 L 249.488281 223.820312 C 249.316406 224.230469 249.140625 224.644531 248.957031 225.0625 C 248.699219 225.617188 247.722656 226.636719 247.132812 226.886719 C 247.160156 226.875 247.183594 226.851562 247.210938 226.839844 C 247.28125 226.804688 247.351562 226.761719 247.421875 226.726562 C 247.664062 226.613281 247.910156 226.503906 248.160156 226.398438 L 246.910156 226.929688 C 250.71875 225.328125 254.675781 223.972656 258.628906 222.777344 C 259.261719 222.589844 259.914062 222.359375 260.570312 222.269531 L 259.179688 222.457031 C 259.226562 222.457031 259.285156 222.441406 259.332031 222.449219 L 257.941406 222.261719 C 257.941406 222.261719 257.960938 222.261719 257.976562 222.269531 L 256.726562 221.738281 L 254.859375 219.871094 L 254.328125 218.621094 L 254.328125 215.835938 C 254.328125 215.835938 254.328125 215.851562 254.328125 215.851562 L 254.859375 214.601562 C 255.222656 213.980469 255.605469 213.613281 256.136719 213.203125 C 257.425781 212.210938 256.734375 212.789062 256.566406 212.867188 C 256.4375 212.921875 256.320312 213.015625 256.195312 213.078125 C 255.753906 213.316406 255.292969 213.515625 254.835938 213.726562 C 253.761719 214.214844 252.683594 215.734375 252.425781 216.859375 C 252.097656 218.289062 252.3125 219.570312 252.957031 220.898438 C 253.203125 221.402344 253.433594 221.917969 253.648438 222.4375 L 253.117188 221.183594 C 254.636719 224.832031 255.601562 228.675781 257.117188 232.324219 C 258.835938 236.457031 261.191406 240.78125 265.472656 242.738281 C 266.742188 243.320312 267.898438 243.71875 269.261719 243.941406 C 269.8125 244.03125 270.378906 244.128906 270.902344 244.332031 L 269.652344 243.800781 C 269.722656 243.828125 269.785156 243.859375 269.847656 243.898438 C 269.28125 243.550781 268.46875 242.789062 268.113281 242.160156 L 267.582031 240.910156 C 267.582031 240.910156 267.597656 240.9375 267.597656 240.949219 L 267.40625 239.558594 L 267.40625 239.582031 C 267.46875 239.117188 267.535156 238.652344 267.597656 238.1875 C 267.597656 238.203125 267.597656 238.21875 267.582031 238.230469 L 268.113281 236.980469 C 268.589844 236.199219 269.140625 235.660156 269.882812 235.210938 C 269.839844 235.238281 269.796875 235.253906 269.757812 235.273438 L 271.007812 234.742188 C 270.691406 234.871094 270.359375 234.925781 270.027344 234.972656 L 271.421875 234.785156 C 270.582031 234.898438 269.722656 234.925781 268.882812 234.820312 L 270.273438 235.007812 C 270.050781 234.972656 269.832031 234.933594 269.625 234.855469 L 270.875 235.386719 C 270.820312 235.367188 270.769531 235.335938 270.714844 235.304688 C 271.378906 235.714844 272.140625 236.394531 272.460938 237.027344 L 272.992188 238.28125 C 272.992188 238.28125 272.980469 238.246094 272.980469 238.222656 L 273.167969 239.617188 C 273.167969 239.617188 273.167969 239.574219 273.167969 239.550781 L 272.980469 240.941406 C 272.980469 240.941406 272.988281 240.902344 273 240.878906 L 272.46875 242.132812 C 272.671875 241.683594 271.398438 243.390625 271.8125 242.96875 C 272.222656 242.550781 270.457031 243.84375 271.097656 243.527344 C 271.449219 243.355469 271.785156 243.160156 272.148438 243.003906 L 270.894531 243.535156 C 272.089844 243.03125 273.351562 242.640625 274.46875 241.96875 C 276.375 240.824219 277.699219 239.210938 278.472656 237.132812 C 279.515625 234.339844 278.703125 231.003906 278.382812 228.144531 C 277.726562 222.367188 277.035156 216.59375 276.308594 210.820312 C 274.804688 198.921875 273.160156 187.050781 271.363281 175.203125 C 270.378906 168.707031 269.351562 162.230469 268.273438 155.75 C 268.078125 154.582031 266.882812 153.15625 265.863281 152.621094 C 264.84375 152.082031 263.710938 151.835938 262.519531 151.996094 C 261.421875 152.144531 260.285156 152.597656 259.507812 153.4375 C 258.640625 154.382812 257.796875 155.808594 257.96875 157.140625 C 259.757812 170.757812 260.144531 184.554688 259.109375 198.246094 C 258.816406 202.140625 258.402344 206.023438 257.886719 209.902344 L 258.074219 208.511719 C 257.53125 212.546875 256.863281 216.566406 256.066406 220.5625 C 255.371094 224.09375 254.78125 227.804688 253.425781 231.152344 L 253.957031 229.898438 C 253.753906 230.375 253.539062 230.84375 253.285156 231.296875 C 253.160156 231.523438 253.027344 231.746094 252.886719 231.953125 C 252.558594 232.457031 252.214844 232.484375 253.097656 231.722656 C 252.777344 231.996094 252.425781 232.703125 252 232.835938 C 252.257812 232.757812 253.0625 232.09375 252.285156 232.585938 C 252 232.765625 251.707031 232.914062 251.40625 233.050781 L 252.65625 232.519531 C 252.210938 232.695312 251.769531 232.828125 251.300781 232.914062 L 252.691406 232.722656 C 252.214844 232.785156 251.769531 232.792969 251.292969 232.75 L 252.683594 232.941406 C 252.246094 232.871094 251.832031 232.765625 251.417969 232.605469 L 252.671875 233.136719 C 252.390625 233.011719 252.140625 232.816406 251.859375 232.695312 C 252.613281 233.304688 252.796875 233.445312 252.40625 233.101562 C 252.300781 233.003906 252.195312 232.898438 252.105469 232.792969 C 251.523438 232.21875 252.910156 234.03125 252.292969 232.976562 C 252.144531 232.722656 252.019531 232.457031 251.894531 232.1875 L 252.425781 233.4375 C 251.25 230.613281 250.902344 227.34375 250.496094 224.335938 L 250.683594 225.726562 C 249.761719 218.710938 249.761719 211.609375 250.683594 204.59375 L 250.496094 205.984375 C 250.523438 205.757812 250.558594 205.535156 250.585938 205.320312 C 250.789062 203.859375 250.832031 202.605469 250.054688 201.277344 C 249.417969 200.1875 248.175781 199.152344 246.925781 198.867188 C 245.582031 198.558594 244.078125 198.628906 242.882812 199.398438 C 241.820312 200.082031 240.660156 201.214844 240.472656 202.53125 Z M 240.457031 202.515625 " fill-opacity="1" fill-rule="nonzero"/></g></svg>